<?xml version="1.0" encoding="utf-8"?>
<!-- Generator: Adobe Illustrator 25.1.0, SVG Export Plug-In . SVG Version: 6.00 Build 0)  -->
<svg version="1.1" id="Layer_1" xmlns="http://www.w3.org/2000/svg" xmlns:xlink="http://www.w3.org/1999/xlink" x="0px" y="0px"
	 viewBox="0 0 512 512" style="enable-background:new 0 0 512 512;" xml:space="preserve">
<path d="M441,351.9c-7.1-4.3-16.3-2.2-20.6,4.9c-17,27.5-40.7,50.5-68.8,66.5c-28.9,16.5-61.9,25.2-95.4,25.2
	c-95.6,0-175.2-70-190.1-161.5l20.3,14.6c6.7,4.8,16.1,3.3,20.9-3.4c4.8-6.7,3.3-16.1-3.4-20.9l-46.6-33.6
	c-3.2-2.3-7.2-3.3-11.2-2.6c-3.9,0.6-7.4,2.8-9.8,6L2.8,293.7c-4.8,6.7-3.3,16.1,3.4,20.9c2.7,1.9,5.7,2.8,8.8,2.8
	c4.7,0,9.2-2.2,12.2-6.2l10.2-14.2c8.1,43.8,29.2,84.1,61.4,116.3c42.1,42.1,98,65.2,157.4,65.2c38.7,0,76.8-10.1,110.2-29.2
	c32.4-18.5,59.9-45.1,79.5-76.8C450.3,365.5,448.1,356.3,441,351.9L441,351.9z"/>
<path d="M505.8,197.4c-6.7-4.8-16.1-3.3-20.9,3.4l-10.2,14.2c-8.1-43.8-29.2-84.1-61.4-116.3c-42.1-42.1-98-65.2-157.4-65.2
	c-38.7,0-76.8,10.1-110.2,29.2c-32.4,18.5-59.9,45.1-79.5,76.8c-4.3,7.1-2.2,16.3,4.9,20.6c7.1,4.3,16.3,2.2,20.6-4.9
	c17-27.5,40.7-50.5,68.8-66.5c28.9-16.5,61.9-25.2,95.4-25.2c95.6,0,175.2,70,190.1,161.5l-20.3-14.6c-6.7-4.8-16.1-3.3-20.9,3.4
	c-4.8,6.7-3.3,16.1,3.4,20.9l46.6,33.6c2.6,1.9,5.6,2.8,8.8,2.8c0.8,0,1.6-0.1,2.4-0.2c3.9-0.6,7.4-2.8,9.8-6l33.6-46.6
	C514,211.6,512.5,202.2,505.8,197.4z"/>
</svg>
