<?xml version="1.0" encoding="utf-8"?>
<!-- Generator: Adobe Illustrator 25.1.0, SVG Export Plug-In . SVG Version: 6.00 Build 0)  -->
<svg version="1.1" id="Layer_1" xmlns="http://www.w3.org/2000/svg" xmlns:xlink="http://www.w3.org/1999/xlink" x="0px" y="0px"
	 viewBox="0 0 512 512" style="enable-background:new 0 0 512 512;" xml:space="preserve">
<style type="text/css">
	.st0{fill:none;}
</style>
<g>
	<polygon class="st0" points="455.7,126.9 256,33.7 175.3,71.3 378.8,157.6 	"/>
	<polygon class="st0" points="136.3,89.5 56.3,126.9 256,206.8 336.7,174.5 	"/>
	<polygon class="st0" points="32,389.2 240,472.4 240,234.8 32,151.6 	"/>
	<polygon class="st0" points="272,472.4 480,389.2 480,151.6 272,234.8 	"/>
	<g>
		<polygon class="st0" points="175.3,71.3 256,33.7 56.3,126.9 256,206.8 378.8,157.6 		"/>
		<polygon class="st0" points="378.8,157.6 455.7,126.9 378.8,157.6 		"/>
		<polygon class="st0" points="32,389.2 240,472.4 240,234.8 32,151.6 		"/>
		<polygon class="st0" points="272,472.4 480,389.2 480,151.6 272,234.8 		"/>
		<path d="M511.9,126.3c-0.6-5.5-4-10.4-9.1-12.8l-240-112c-4.3-2-9.2-2-13.5,0l-240,112c-5.1,2.4-8.5,7.3-9.1,12.8
			c0,0.1-0.1,1.6-0.1,1.7v272c0,6.5,4,12.4,10.1,14.9l240,96c1.9,0.8,3.9,1.1,5.9,1.1c2,0,4-0.4,5.9-1.1l240-96
			c6.1-2.4,10.1-8.3,10.1-14.9V128C512,127.9,511.9,126.4,511.9,126.3z M240,472.4L32,389.2V151.6l208,83.2V472.4z M256,206.8
			L56.3,126.9L256,33.7l199.7,93.2l-76.9,30.8l0,0L256,206.8z M480,389.2l-208,83.2V234.8l208-83.2V389.2z"/>
	</g>
</g>
</svg>
